<svg viewBox="67.14 280.93 512 512" width="512" height="512" xmlns="http://www.w3.org/2000/svg">
    <g transform="matrix(0,-0.86390502,0.82839388,0,-156.19351,795.40362)">
        <g transform="translate(0,0.94981526)" >
            <g transform="matrix(1.2186563,0,0,1,-64.272065,0)" >
                <g transform="matrix(1,0,0,0.88850838,0,31.321748)">
                    <g transform="matrix(1.0049243,0,0,1,-1.4686725,1.0216292)">
                        <g transform="matrix(0.98039941,0,0,0.9700719,5.8458759,7.2032099)">
                            <path fill="#5e0fad" style="stroke-width:1.01646" d="m 527.85714,566.90397 c 0,78.96852 -6.60813,22.09468 -48.116,-27.34868 -41.50787,-49.44336 -117.91548,-118.62885 -181.52685,-118.62885 -63.61137,0 -140.37613,69.18549 -182.24115,118.62885 -41.865021,49.44336 -48.830296,106.31721 -48.830296,27.34868 0,-157.93705 103.134416,-285.97032 230.357156,-285.97032 127.22274,10e-6 230.35714,128.03328 230.35714,285.97032 z" />
                            <path fill="#862ede" style="stroke-width:1.01646" d="m 528.21429,685.8268 c 0,78.96852 -6.60813,22.09467 -48.116,-27.34869 C 438.59042,609.03476 362.1828,539.84927 298.57143,539.84927 c -63.61137,0 -140.37613,69.18549 -182.24115,118.62885 -41.865012,49.44336 -48.830284,106.3172 -48.830284,27.34868 0,-157.93705 103.134404,-285.97033 230.357144,-285.97033 127.22275,10e-6 230.35715,128.03329 230.35715,285.97033 z" />
                            <path fill="#b952f9" style="stroke-width:1.01646" d="m 528.92858,804.28501 c 0,78.96852 -6.60813,22.09468 -48.116,-27.34868 -41.50787,-49.44336 -117.91549,-118.62885 -181.52686,-118.62885 -63.61137,0 -140.37613,69.18549 -182.24115,118.62885 -41.865017,49.44336 -48.830291,106.31721 -48.830291,27.34868 0,-157.93705 103.134411,-285.97032 230.357151,-285.97032 127.22275,10e-6 230.35715,128.03328 230.35715,285.97032 z" />
                            <path fill="#d561ff" style="stroke-width:1.01646" d="m 529.35715,930.66031 c 0,78.96859 -6.60813,22.29496 -48.116,-26.94812 -41.50787,-49.24307 -117.91549,-119.02942 -181.52686,-119.02942 -63.61137,0 -140.37613,69.78635 -182.24115,119.02942 C 75.608124,952.95527 68.64285,1009.6289 68.64285,930.66031 68.64285,772.72326 171.77726,644.69 299,644.69 c 127.22275,10e-6 230.35715,128.03327 230.35715,285.97031 z" />
                        </g>
                    </g>
                </g>
            </g>
        </g>
    </g>
</svg>
